<svg width="800" height="800" viewBox="0 0 800 800" fill="none" xmlns="http://www.w3.org/2000/svg">
<path fill-rule="evenodd" clip-rule="evenodd" d="M218.428 53.5183C236.981 44.2423 259.115 33.334 300.001 33.334C340.884 33.334 363.021 44.2413 381.574 53.5173L382.104 53.783C396.624 61.0443 407.864 66.6643 433.334 66.665C474.571 66.6667 498.994 51.291 507.137 45.1713C519.814 35.6446 534.791 36.448 545.131 41.2306C555.604 46.075 566.667 57.6337 566.667 74.7167V433.334H666.667C721.874 433.334 766.667 478.051 766.667 533.301V633.334C766.667 664.167 758.864 689.507 745.444 709.637C732.164 729.557 714.694 742.421 698.241 750.647C681.917 758.811 665.997 762.724 654.437 764.651C647.497 765.807 640.387 766.681 633.334 766.667H166.667C135.835 766.667 110.494 758.864 90.3647 745.444C70.4443 732.164 57.5803 714.694 49.353 698.241C41.1913 681.917 37.2763 665.997 35.35 654.441C34.3737 648.581 33.8726 643.627 33.614 640.007C33.3986 636.991 33.335 635.204 33.334 633.334V74.716C33.334 57.6337 44.3953 46.075 54.8693 41.2306C65.21 36.4476 80.1877 35.6443 92.8637 45.1703C101.007 51.29 125.43 66.665 166.667 66.665C192.139 66.665 203.377 61.0453 217.897 53.784L218.428 53.5183ZM100.111 633.334L100.001 122.791C118.007 128.86 140.245 133.332 166.667 133.332C207.553 133.332 229.687 122.424 248.24 113.148L248.771 112.882C263.291 105.621 274.529 100.001 300.001 100.001C325.473 100.001 336.711 105.62 351.231 112.882L351.761 113.147C370.314 122.423 392.447 133.331 433.334 133.332C459.757 133.333 481.994 128.861 500.001 122.792V633.334C500.001 659.434 505.594 681.601 515.451 700.001H166.667C147.5 700.001 135.341 695.304 127.345 689.974C119.14 684.504 113.254 676.974 108.982 668.427C104.643 659.751 102.308 650.671 101.11 643.481C100.546 640.097 100.205 636.747 100.111 633.334ZM643.481 698.891C650.671 697.694 659.751 695.357 668.427 691.021C676.974 686.747 684.504 680.861 689.974 672.657C695.304 664.661 700.001 652.501 700.001 633.334V533.301C700.001 514.914 685.097 500.001 666.667 500.001H566.667V633.334C566.667 652.501 571.364 664.661 576.694 672.657C582.164 680.861 589.694 686.747 598.241 691.021C606.917 695.357 615.997 697.694 623.191 698.891C626.707 699.477 629.564 699.757 631.411 699.891C635.431 700.177 639.524 699.551 643.481 698.891Z" fill="url(#paint0_linear_542_2)"/>
<path d="M166.666 266.667C166.666 248.258 181.59 233.334 199.999 233.334H399.999C418.409 233.334 433.333 248.258 433.333 266.667C433.333 285.077 418.409 300.001 399.999 300.001H199.999C181.59 300.001 166.666 285.077 166.666 266.667Z" fill="#D397FA"/>
<path d="M166.666 399.999C166.666 381.589 181.59 366.666 199.999 366.666H399.999C418.409 366.666 433.333 381.589 433.333 399.999C433.333 418.409 418.409 433.333 399.999 433.333H199.999C181.59 433.333 166.666 418.409 166.666 399.999Z" fill="#AB7EF1"/>
<path d="M166.666 533.333C166.666 514.923 181.59 500 199.999 500H399.999C418.409 500 433.333 514.923 433.333 533.333C433.333 551.743 418.409 566.667 399.999 566.667H199.999C181.59 566.667 166.666 551.743 166.666 533.333Z" fill="#8364E8"/>
<defs>
<linearGradient id="paint0_linear_542_2" x1="400.001" y1="33.334" x2="400.001" y2="766.667" gradientUnits="userSpaceOnUse">
<stop stop-color="#D397FA"/>
<stop offset="1" stop-color="#8364E8"/>
</linearGradient>
</defs>
</svg>
